<mxfile host="app.diagrams.net" modified="2024-07-01T09:54:46.840Z" agent="Mozilla/5.0 (Windows NT 10.0; Win64; x64) AppleWebKit/537.36 (KHTML, like Gecko) Chrome/125.0.0.0 Safari/537.36" version="24.6.4" etag="IaNdjfUkZDxuaPc-fNkE" type="github">
  <diagram name="PÃ¡gina-1" id="C7RaavmmmW8IeW16GVqN">
    <mxGraphModel>
      <root>
        <mxCell id="0" />
        <mxCell id="1" parent="0" />
      </root>
    </mxGraphModel>
  </diagram>
</mxfile>
